<mxfile host="app.diagrams.net" modified="2020-06-07T02:54:45.113Z" agent="5.0 (X11; Linux x86_64) AppleWebKit/537.36 (KHTML, like Gecko) Chrome/80.0.3987.149 Safari/537.36" etag="ns_H7ZMQAvvnyuij6CGE" version="13.1.14" type="github" pages="4">
  <diagram id="VWjbHAvk82t74OLdqyVX" name="traverse">
    <mxGraphModel dx="1422" dy="806" grid="1" gridSize="10" guides="1" tooltips="1" connect="1" arrows="1" fold="1" page="1" pageScale="1" pageWidth="827" pageHeight="1169" math="0" shadow="0">
      <root>
        <mxCell id="0" />
        <mxCell id="1" parent="0" />
        <mxCell id="FS7d5kPWWU2juKKya9Ju-1" value="&lt;b&gt;traverse&lt;/b&gt;" style="text;html=1;strokeColor=none;fillColor=none;align=center;verticalAlign=middle;whiteSpace=wrap;rounded=0;" parent="1" vertex="1">
          <mxGeometry x="20" y="20" width="100" height="50" as="geometry" />
        </mxCell>
        <mxCell id="FS7d5kPWWU2juKKya9Ju-12" value="traverse_func_t" style="text;html=1;strokeColor=none;fillColor=none;align=center;verticalAlign=middle;whiteSpace=wrap;rounded=0;" parent="1" vertex="1">
          <mxGeometry x="160" y="145" width="90" height="20" as="geometry" />
        </mxCell>
        <mxCell id="FS7d5kPWWU2juKKya9Ju-15" value="strategy_traverse_kernel()" style="rounded=0;whiteSpace=wrap;html=1;" parent="1" vertex="1">
          <mxGeometry x="420" y="70" width="230" height="30" as="geometry" />
        </mxCell>
        <mxCell id="FS7d5kPWWU2juKKya9Ju-16" value="strategy_traverse()" style="rounded=0;whiteSpace=wrap;html=1;" parent="1" vertex="1">
          <mxGeometry x="320" y="140" width="140" height="30" as="geometry" />
        </mxCell>
        <mxCell id="FS7d5kPWWU2juKKya9Ju-17" value="list_traverse()" style="rounded=0;whiteSpace=wrap;html=1;" parent="1" vertex="1">
          <mxGeometry x="200" y="255" width="140" height="30" as="geometry" />
        </mxCell>
        <mxCell id="FS7d5kPWWU2juKKya9Ju-19" value="" style="endArrow=classic;html=1;exitX=1;exitY=0.5;exitDx=0;exitDy=0;entryX=0;entryY=0.5;entryDx=0;entryDy=0;" parent="1" source="FS7d5kPWWU2juKKya9Ju-12" target="FS7d5kPWWU2juKKya9Ju-16" edge="1">
          <mxGeometry width="50" height="50" relative="1" as="geometry">
            <mxPoint x="-34" y="210" as="sourcePoint" />
            <mxPoint x="16" y="160" as="targetPoint" />
          </mxGeometry>
        </mxCell>
        <mxCell id="FS7d5kPWWU2juKKya9Ju-20" value="traverse_func_t" style="text;html=1;strokeColor=none;fillColor=none;align=center;verticalAlign=middle;whiteSpace=wrap;rounded=0;" parent="1" vertex="1">
          <mxGeometry x="56" y="260" width="90" height="20" as="geometry" />
        </mxCell>
        <mxCell id="FS7d5kPWWU2juKKya9Ju-21" value="" style="endArrow=classic;html=1;exitX=1;exitY=0.5;exitDx=0;exitDy=0;entryX=0;entryY=0.5;entryDx=0;entryDy=0;" parent="1" source="FS7d5kPWWU2juKKya9Ju-20" target="FS7d5kPWWU2juKKya9Ju-17" edge="1">
          <mxGeometry width="50" height="50" relative="1" as="geometry">
            <mxPoint x="186" y="130" as="sourcePoint" />
            <mxPoint x="236" y="80" as="targetPoint" />
          </mxGeometry>
        </mxCell>
        <mxCell id="FS7d5kPWWU2juKKya9Ju-22" value="round_traverse_kernel()" style="rounded=0;whiteSpace=wrap;html=1;" parent="1" vertex="1">
          <mxGeometry x="320" y="620" width="230" height="30" as="geometry" />
        </mxCell>
        <mxCell id="FS7d5kPWWU2juKKya9Ju-23" value="round_traverse()" style="rounded=0;whiteSpace=wrap;html=1;" parent="1" vertex="1">
          <mxGeometry x="194" y="685" width="140" height="30" as="geometry" />
        </mxCell>
        <mxCell id="FS7d5kPWWU2juKKya9Ju-26" value="traverse_func_t" style="text;html=1;strokeColor=none;fillColor=none;align=center;verticalAlign=middle;whiteSpace=wrap;rounded=0;" parent="1" vertex="1">
          <mxGeometry x="40" y="690" width="90" height="20" as="geometry" />
        </mxCell>
        <mxCell id="FS7d5kPWWU2juKKya9Ju-27" value="" style="endArrow=classic;html=1;exitX=1;exitY=0.5;exitDx=0;exitDy=0;entryX=0;entryY=0.5;entryDx=0;entryDy=0;" parent="1" source="FS7d5kPWWU2juKKya9Ju-26" target="FS7d5kPWWU2juKKya9Ju-23" edge="1">
          <mxGeometry width="50" height="50" relative="1" as="geometry">
            <mxPoint x="90" y="745" as="sourcePoint" />
            <mxPoint x="140" y="695" as="targetPoint" />
          </mxGeometry>
        </mxCell>
        <mxCell id="FS7d5kPWWU2juKKya9Ju-30" value="traverse_test_kernel()" style="rounded=0;whiteSpace=wrap;html=1;" parent="1" vertex="1">
          <mxGeometry x="590" y="440" width="150" height="30" as="geometry" />
        </mxCell>
        <mxCell id="FS7d5kPWWU2juKKya9Ju-31" value="traverse_test_ratio_kernel()" style="rounded=0;whiteSpace=wrap;html=1;" parent="1" vertex="1">
          <mxGeometry x="400" y="380" width="150" height="30" as="geometry" />
        </mxCell>
        <mxCell id="FS7d5kPWWU2juKKya9Ju-32" value="traverse_test_bool_kernel()" style="rounded=0;whiteSpace=wrap;html=1;" parent="1" vertex="1">
          <mxGeometry x="390" y="490" width="160" height="30" as="geometry" />
        </mxCell>
        <mxCell id="Zo7FFSdm4HVWrEs2qOny-2" value="" style="endArrow=none;dashed=1;html=1;exitX=0.552;exitY=0.01;exitDx=0;exitDy=0;exitPerimeter=0;entryX=0.5;entryY=1;entryDx=0;entryDy=0;" parent="1" source="FS7d5kPWWU2juKKya9Ju-17" target="FS7d5kPWWU2juKKya9Ju-16" edge="1">
          <mxGeometry width="50" height="50" relative="1" as="geometry">
            <mxPoint x="330" y="250" as="sourcePoint" />
            <mxPoint x="380" y="200" as="targetPoint" />
          </mxGeometry>
        </mxCell>
        <mxCell id="Zo7FFSdm4HVWrEs2qOny-3" value="" style="endArrow=none;dashed=1;html=1;exitX=0.5;exitY=0;exitDx=0;exitDy=0;entryX=0.5;entryY=1;entryDx=0;entryDy=0;" parent="1" source="FS7d5kPWWU2juKKya9Ju-16" target="FS7d5kPWWU2juKKya9Ju-15" edge="1">
          <mxGeometry width="50" height="50" relative="1" as="geometry">
            <mxPoint x="390" y="90" as="sourcePoint" />
            <mxPoint x="440" y="40" as="targetPoint" />
          </mxGeometry>
        </mxCell>
        <mxCell id="Zo7FFSdm4HVWrEs2qOny-4" value="" style="endArrow=none;dashed=1;html=1;exitX=0.5;exitY=0;exitDx=0;exitDy=0;entryX=0.5;entryY=1;entryDx=0;entryDy=0;" parent="1" source="FS7d5kPWWU2juKKya9Ju-23" target="FS7d5kPWWU2juKKya9Ju-22" edge="1">
          <mxGeometry width="50" height="50" relative="1" as="geometry">
            <mxPoint x="60" y="575" as="sourcePoint" />
            <mxPoint x="110" y="525" as="targetPoint" />
          </mxGeometry>
        </mxCell>
        <mxCell id="Zo7FFSdm4HVWrEs2qOny-5" value="" style="endArrow=none;dashed=1;html=1;exitX=1;exitY=0.5;exitDx=0;exitDy=0;entryX=0;entryY=0.5;entryDx=0;entryDy=0;" parent="1" source="FS7d5kPWWU2juKKya9Ju-31" target="FS7d5kPWWU2juKKya9Ju-30" edge="1">
          <mxGeometry width="50" height="50" relative="1" as="geometry">
            <mxPoint x="590" y="430" as="sourcePoint" />
            <mxPoint x="640" y="380" as="targetPoint" />
          </mxGeometry>
        </mxCell>
        <mxCell id="Zo7FFSdm4HVWrEs2qOny-6" value="" style="endArrow=none;dashed=1;html=1;exitX=1;exitY=0.5;exitDx=0;exitDy=0;entryX=0;entryY=0.5;entryDx=0;entryDy=0;" parent="1" source="FS7d5kPWWU2juKKya9Ju-32" target="FS7d5kPWWU2juKKya9Ju-30" edge="1">
          <mxGeometry width="50" height="50" relative="1" as="geometry">
            <mxPoint x="620" y="480" as="sourcePoint" />
            <mxPoint x="670" y="430" as="targetPoint" />
          </mxGeometry>
        </mxCell>
        <mxCell id="Zo7FFSdm4HVWrEs2qOny-7" value="traverse_test_ratio()" style="rounded=0;whiteSpace=wrap;html=1;" parent="1" vertex="1">
          <mxGeometry x="190" y="380" width="140" height="30" as="geometry" />
        </mxCell>
        <mxCell id="Zo7FFSdm4HVWrEs2qOny-8" value="" style="endArrow=none;dashed=1;html=1;exitX=1;exitY=0.5;exitDx=0;exitDy=0;entryX=0;entryY=0.5;entryDx=0;entryDy=0;strokeColor=#000000;shadow=0;" parent="1" source="Zo7FFSdm4HVWrEs2qOny-7" target="FS7d5kPWWU2juKKya9Ju-31" edge="1">
          <mxGeometry width="50" height="50" relative="1" as="geometry">
            <mxPoint x="270" y="420" as="sourcePoint" />
            <mxPoint x="320" y="370" as="targetPoint" />
          </mxGeometry>
        </mxCell>
        <mxCell id="Zo7FFSdm4HVWrEs2qOny-11" style="edgeStyle=orthogonalEdgeStyle;rounded=0;orthogonalLoop=1;jettySize=auto;html=1;entryX=0;entryY=0.5;entryDx=0;entryDy=0;shadow=0;strokeColor=#000000;" parent="1" source="Zo7FFSdm4HVWrEs2qOny-10" target="Zo7FFSdm4HVWrEs2qOny-7" edge="1">
          <mxGeometry relative="1" as="geometry" />
        </mxCell>
        <mxCell id="Zo7FFSdm4HVWrEs2qOny-10" value="traverse_test_ratio_t" style="text;html=1;strokeColor=none;fillColor=none;align=center;verticalAlign=middle;whiteSpace=wrap;rounded=0;" parent="1" vertex="1">
          <mxGeometry x="30.5" y="385" width="119" height="20" as="geometry" />
        </mxCell>
        <mxCell id="Zo7FFSdm4HVWrEs2qOny-12" value="traverse_test_ratio()" style="rounded=0;whiteSpace=wrap;html=1;" parent="1" vertex="1">
          <mxGeometry x="190" y="490" width="140" height="30" as="geometry" />
        </mxCell>
        <mxCell id="Zo7FFSdm4HVWrEs2qOny-13" value="" style="endArrow=none;dashed=1;html=1;shadow=0;strokeColor=#000000;exitX=1;exitY=0.5;exitDx=0;exitDy=0;entryX=0;entryY=0.5;entryDx=0;entryDy=0;" parent="1" source="Zo7FFSdm4HVWrEs2qOny-12" target="FS7d5kPWWU2juKKya9Ju-32" edge="1">
          <mxGeometry width="50" height="50" relative="1" as="geometry">
            <mxPoint x="590" y="440" as="sourcePoint" />
            <mxPoint x="640" y="390" as="targetPoint" />
          </mxGeometry>
        </mxCell>
        <mxCell id="Zo7FFSdm4HVWrEs2qOny-15" style="edgeStyle=orthogonalEdgeStyle;rounded=0;orthogonalLoop=1;jettySize=auto;html=1;entryX=0;entryY=0.5;entryDx=0;entryDy=0;shadow=0;strokeColor=#000000;" parent="1" source="Zo7FFSdm4HVWrEs2qOny-14" target="Zo7FFSdm4HVWrEs2qOny-12" edge="1">
          <mxGeometry relative="1" as="geometry" />
        </mxCell>
        <mxCell id="Zo7FFSdm4HVWrEs2qOny-14" value="traverse_test_t" style="text;html=1;strokeColor=none;fillColor=none;align=center;verticalAlign=middle;whiteSpace=wrap;rounded=0;" parent="1" vertex="1">
          <mxGeometry x="40" y="495" width="100" height="20" as="geometry" />
        </mxCell>
        <mxCell id="KklqSmc4hQ2V-FC92QJq-1" value="strategy_traverse_kernel()" style="rounded=0;whiteSpace=wrap;html=1;" parent="1" vertex="1">
          <mxGeometry x="420" y="70" width="230" height="30" as="geometry" />
        </mxCell>
        <mxCell id="KklqSmc4hQ2V-FC92QJq-2" value="traverse_test_kernel()" style="rounded=0;whiteSpace=wrap;html=1;" parent="1" vertex="1">
          <mxGeometry x="590" y="440" width="150" height="30" as="geometry" />
        </mxCell>
      </root>
    </mxGraphModel>
  </diagram>
  <diagram id="T-bNVxMkUz2WCmqJFzeI" name="search">
    <mxGraphModel dx="1422" dy="806" grid="1" gridSize="10" guides="1" tooltips="1" connect="1" arrows="1" fold="1" page="1" pageScale="1" pageWidth="827" pageHeight="1169" math="0" shadow="0">
      <root>
        <mxCell id="Tn1WGEwWElnVea5_7VDU-0" />
        <mxCell id="Tn1WGEwWElnVea5_7VDU-1" parent="Tn1WGEwWElnVea5_7VDU-0" />
        <mxCell id="8xxtN-OxpfmECVtC8IhC-0" value="split_random_set()" style="rounded=0;whiteSpace=wrap;html=1;" parent="Tn1WGEwWElnVea5_7VDU-1" vertex="1">
          <mxGeometry x="646" y="355" width="120" height="40" as="geometry" />
        </mxCell>
        <mxCell id="8xxtN-OxpfmECVtC8IhC-1" value="targeted_evict_random_pick()" style="rounded=0;whiteSpace=wrap;html=1;" parent="Tn1WGEwWElnVea5_7VDU-1" vertex="1">
          <mxGeometry x="416" y="395" width="186" height="40" as="geometry" />
        </mxCell>
        <mxCell id="8xxtN-OxpfmECVtC8IhC-2" value="targeted_trim_divide()" style="rounded=0;whiteSpace=wrap;html=1;" parent="Tn1WGEwWElnVea5_7VDU-1" vertex="1">
          <mxGeometry x="91.5" y="155" width="149" height="40" as="geometry" />
        </mxCell>
        <mxCell id="8xxtN-OxpfmECVtC8IhC-3" value="targeted_trim_divide_random()" style="rounded=0;whiteSpace=wrap;html=1;" parent="Tn1WGEwWElnVea5_7VDU-1" vertex="1">
          <mxGeometry x="80" y="285" width="186" height="40" as="geometry" />
        </mxCell>
        <mxCell id="8xxtN-OxpfmECVtC8IhC-4" value="targeted_trim_original()" style="rounded=0;whiteSpace=wrap;html=1;" parent="Tn1WGEwWElnVea5_7VDU-1" vertex="1">
          <mxGeometry x="346" y="210" width="149" height="40" as="geometry" />
        </mxCell>
        <mxCell id="8xxtN-OxpfmECVtC8IhC-6" value="" style="endArrow=none;dashed=1;html=1;exitX=1;exitY=0.5;exitDx=0;exitDy=0;entryX=0;entryY=0.5;entryDx=0;entryDy=0;" parent="Tn1WGEwWElnVea5_7VDU-1" source="8xxtN-OxpfmECVtC8IhC-1" target="8xxtN-OxpfmECVtC8IhC-0" edge="1">
          <mxGeometry width="50" height="50" relative="1" as="geometry">
            <mxPoint x="510" y="495" as="sourcePoint" />
            <mxPoint x="560" y="445" as="targetPoint" />
          </mxGeometry>
        </mxCell>
        <mxCell id="8xxtN-OxpfmECVtC8IhC-7" value="loop_gurad()" style="rounded=0;whiteSpace=wrap;html=1;fillColor=#f5f5f5;strokeColor=#666666;gradientColor=#b3b3b3;" parent="Tn1WGEwWElnVea5_7VDU-1" vertex="1">
          <mxGeometry x="435" y="100" width="120" height="40" as="geometry" />
        </mxCell>
        <mxCell id="8xxtN-OxpfmECVtC8IhC-10" value="" style="endArrow=none;dashed=1;html=1;exitX=1;exitY=0.5;exitDx=0;exitDy=0;entryX=0;entryY=0.5;entryDx=0;entryDy=0;" parent="Tn1WGEwWElnVea5_7VDU-1" source="8xxtN-OxpfmECVtC8IhC-2" target="8xxtN-OxpfmECVtC8IhC-4" edge="1">
          <mxGeometry width="50" height="50" relative="1" as="geometry">
            <mxPoint x="340" y="125" as="sourcePoint" />
            <mxPoint x="390" y="75" as="targetPoint" />
          </mxGeometry>
        </mxCell>
        <mxCell id="8xxtN-OxpfmECVtC8IhC-11" value="" style="endArrow=none;dashed=1;html=1;exitX=0.75;exitY=0;exitDx=0;exitDy=0;entryX=0.5;entryY=1;entryDx=0;entryDy=0;" parent="Tn1WGEwWElnVea5_7VDU-1" source="8xxtN-OxpfmECVtC8IhC-4" target="8xxtN-OxpfmECVtC8IhC-7" edge="1">
          <mxGeometry width="50" height="50" relative="1" as="geometry">
            <mxPoint x="255" y="140" as="sourcePoint" />
            <mxPoint x="305" y="90" as="targetPoint" />
          </mxGeometry>
        </mxCell>
        <mxCell id="8xxtN-OxpfmECVtC8IhC-12" value="" style="endArrow=none;dashed=1;html=1;exitX=0.75;exitY=0;exitDx=0;exitDy=0;entryX=-0.005;entryY=0.402;entryDx=0;entryDy=0;entryPerimeter=0;" parent="Tn1WGEwWElnVea5_7VDU-1" source="8xxtN-OxpfmECVtC8IhC-2" target="8xxtN-OxpfmECVtC8IhC-7" edge="1">
          <mxGeometry width="50" height="50" relative="1" as="geometry">
            <mxPoint x="340" y="125" as="sourcePoint" />
            <mxPoint x="390" y="75" as="targetPoint" />
          </mxGeometry>
        </mxCell>
        <mxCell id="8xxtN-OxpfmECVtC8IhC-13" value="" style="endArrow=none;dashed=1;html=1;entryX=0;entryY=0.5;entryDx=0;entryDy=0;" parent="Tn1WGEwWElnVea5_7VDU-1" source="8xxtN-OxpfmECVtC8IhC-3" target="8xxtN-OxpfmECVtC8IhC-7" edge="1">
          <mxGeometry width="50" height="50" relative="1" as="geometry">
            <mxPoint x="340" y="125" as="sourcePoint" />
            <mxPoint x="390" y="75" as="targetPoint" />
          </mxGeometry>
        </mxCell>
        <mxCell id="8xxtN-OxpfmECVtC8IhC-14" value="" style="endArrow=none;dashed=1;html=1;exitX=1;exitY=0.5;exitDx=0;exitDy=0;entryX=0;entryY=0.5;entryDx=0;entryDy=0;" parent="Tn1WGEwWElnVea5_7VDU-1" source="8xxtN-OxpfmECVtC8IhC-3" target="8xxtN-OxpfmECVtC8IhC-4" edge="1">
          <mxGeometry width="50" height="50" relative="1" as="geometry">
            <mxPoint x="340" y="125" as="sourcePoint" />
            <mxPoint x="390" y="75" as="targetPoint" />
          </mxGeometry>
        </mxCell>
        <mxCell id="8xxtN-OxpfmECVtC8IhC-15" value="Search&amp;nbsp;" style="text;html=1;align=center;verticalAlign=middle;resizable=0;points=[];autosize=1;fontStyle=1" parent="Tn1WGEwWElnVea5_7VDU-1" vertex="1">
          <mxGeometry x="40" y="30" width="60" height="20" as="geometry" />
        </mxCell>
        <mxCell id="Y90mWys2gMt4YXHNskYg-0" value="" style="endArrow=none;dashed=1;html=1;exitX=0;exitY=0.5;exitDx=0;exitDy=0;entryX=0.75;entryY=1;entryDx=0;entryDy=0;" parent="Tn1WGEwWElnVea5_7VDU-1" source="8xxtN-OxpfmECVtC8IhC-1" target="8xxtN-OxpfmECVtC8IhC-3" edge="1">
          <mxGeometry width="50" height="50" relative="1" as="geometry">
            <mxPoint x="470" y="125" as="sourcePoint" />
            <mxPoint x="520" y="75" as="targetPoint" />
          </mxGeometry>
        </mxCell>
        <mxCell id="Y90mWys2gMt4YXHNskYg-1" value="" style="endArrow=none;dashed=1;html=1;exitX=0.5;exitY=1;exitDx=0;exitDy=0;entryX=0.25;entryY=0;entryDx=0;entryDy=0;" parent="Tn1WGEwWElnVea5_7VDU-1" source="8xxtN-OxpfmECVtC8IhC-2" target="8xxtN-OxpfmECVtC8IhC-1" edge="1">
          <mxGeometry width="50" height="50" relative="1" as="geometry">
            <mxPoint x="470" y="265" as="sourcePoint" />
            <mxPoint x="520" y="215" as="targetPoint" />
          </mxGeometry>
        </mxCell>
        <mxCell id="Y90mWys2gMt4YXHNskYg-2" value="" style="endArrow=none;dashed=1;html=1;exitX=0.5;exitY=0;exitDx=0;exitDy=0;entryX=0.5;entryY=1;entryDx=0;entryDy=0;" parent="Tn1WGEwWElnVea5_7VDU-1" source="8xxtN-OxpfmECVtC8IhC-1" target="8xxtN-OxpfmECVtC8IhC-4" edge="1">
          <mxGeometry width="50" height="50" relative="1" as="geometry">
            <mxPoint x="406" y="315" as="sourcePoint" />
            <mxPoint x="456" y="265" as="targetPoint" />
          </mxGeometry>
        </mxCell>
      </root>
    </mxGraphModel>
  </diagram>
  <diagram id="4l7h5tREHzyghQnjfsb7" name="attack">
    <mxGraphModel dx="1422" dy="806" grid="1" gridSize="10" guides="1" tooltips="1" connect="1" arrows="1" fold="1" page="1" pageScale="1" pageWidth="850" pageHeight="1100" math="0" shadow="0">
      <root>
        <mxCell id="3ZXVbtOlQP2Ta9_F8lid-0" />
        <mxCell id="3ZXVbtOlQP2Ta9_F8lid-1" parent="3ZXVbtOlQP2Ta9_F8lid-0" />
        <mxCell id="3ZXVbtOlQP2Ta9_F8lid-33" style="edgeStyle=orthogonalEdgeStyle;rounded=0;orthogonalLoop=1;jettySize=auto;html=1;entryX=0.5;entryY=0;entryDx=0;entryDy=0;" parent="3ZXVbtOlQP2Ta9_F8lid-1" source="3ZXVbtOlQP2Ta9_F8lid-30" target="3ZXVbtOlQP2Ta9_F8lid-32" edge="1">
          <mxGeometry relative="1" as="geometry" />
        </mxCell>
        <mxCell id="3ZXVbtOlQP2Ta9_F8lid-30" value="" style="rounded=0;whiteSpace=wrap;html=1;" parent="3ZXVbtOlQP2Ta9_F8lid-1" vertex="1">
          <mxGeometry x="290" y="457.5" width="290" height="55" as="geometry" />
        </mxCell>
        <mxCell id="3ZXVbtOlQP2Ta9_F8lid-5" value="test-eviction-tar-ran 代码流程" style="text;html=1;align=center;verticalAlign=middle;resizable=0;points=[];autosize=1;" parent="3ZXVbtOlQP2Ta9_F8lid-1" vertex="1">
          <mxGeometry x="10" y="20" width="170" height="20" as="geometry" />
        </mxCell>
        <mxCell id="3ZXVbtOlQP2Ta9_F8lid-19" style="edgeStyle=orthogonalEdgeStyle;rounded=0;orthogonalLoop=1;jettySize=auto;html=1;" parent="3ZXVbtOlQP2Ta9_F8lid-1" source="3ZXVbtOlQP2Ta9_F8lid-6" target="3ZXVbtOlQP2Ta9_F8lid-18" edge="1">
          <mxGeometry relative="1" as="geometry" />
        </mxCell>
        <mxCell id="3ZXVbtOlQP2Ta9_F8lid-6" value="parser params" style="rounded=0;whiteSpace=wrap;html=1;" parent="3ZXVbtOlQP2Ta9_F8lid-1" vertex="1">
          <mxGeometry x="90" y="165" width="120" height="30" as="geometry" />
        </mxCell>
        <mxCell id="3ZXVbtOlQP2Ta9_F8lid-9" value="cache-config" style="rounded=0;whiteSpace=wrap;html=1;" parent="3ZXVbtOlQP2Ta9_F8lid-1" vertex="1">
          <mxGeometry x="240" y="40" width="120" height="30" as="geometry" />
        </mxCell>
        <mxCell id="3ZXVbtOlQP2Ta9_F8lid-10" value="traverse-cfg" style="rounded=0;whiteSpace=wrap;html=1;" parent="3ZXVbtOlQP2Ta9_F8lid-1" vertex="1">
          <mxGeometry x="240" y="90" width="120" height="30" as="geometry" />
        </mxCell>
        <mxCell id="3ZXVbtOlQP2Ta9_F8lid-11" value="cache_level" style="rounded=0;whiteSpace=wrap;html=1;" parent="3ZXVbtOlQP2Ta9_F8lid-1" vertex="1">
          <mxGeometry x="240" y="140" width="120" height="30" as="geometry" />
        </mxCell>
        <mxCell id="3ZXVbtOlQP2Ta9_F8lid-12" value="candidate_size" style="rounded=0;whiteSpace=wrap;html=1;" parent="3ZXVbtOlQP2Ta9_F8lid-1" vertex="1">
          <mxGeometry x="240" y="190" width="120" height="30" as="geometry" />
        </mxCell>
        <mxCell id="3ZXVbtOlQP2Ta9_F8lid-14" value="splitN" style="rounded=0;whiteSpace=wrap;html=1;" parent="3ZXVbtOlQP2Ta9_F8lid-1" vertex="1">
          <mxGeometry x="240" y="240" width="120" height="30" as="geometry" />
        </mxCell>
        <mxCell id="3ZXVbtOlQP2Ta9_F8lid-15" value="testN" style="rounded=0;whiteSpace=wrap;html=1;" parent="3ZXVbtOlQP2Ta9_F8lid-1" vertex="1">
          <mxGeometry x="240" y="290" width="120" height="30" as="geometry" />
        </mxCell>
        <mxCell id="3ZXVbtOlQP2Ta9_F8lid-16" value="" style="shape=curlyBracket;whiteSpace=wrap;html=1;rounded=1;" parent="3ZXVbtOlQP2Ta9_F8lid-1" vertex="1">
          <mxGeometry x="210" y="40" width="20" height="280" as="geometry" />
        </mxCell>
        <mxCell id="3ZXVbtOlQP2Ta9_F8lid-23" style="edgeStyle=orthogonalEdgeStyle;rounded=0;orthogonalLoop=1;jettySize=auto;html=1;" parent="3ZXVbtOlQP2Ta9_F8lid-1" source="3ZXVbtOlQP2Ta9_F8lid-18" target="3ZXVbtOlQP2Ta9_F8lid-22" edge="1">
          <mxGeometry relative="1" as="geometry" />
        </mxCell>
        <mxCell id="3ZXVbtOlQP2Ta9_F8lid-18" value="cache_init()" style="rounded=0;whiteSpace=wrap;html=1;" parent="3ZXVbtOlQP2Ta9_F8lid-1" vertex="1">
          <mxGeometry x="90" y="370" width="120" height="30" as="geometry" />
        </mxCell>
        <mxCell id="3ZXVbtOlQP2Ta9_F8lid-20" value="循环测试的次数" style="text;html=1;align=center;verticalAlign=middle;resizable=0;points=[];autosize=1;" parent="3ZXVbtOlQP2Ta9_F8lid-1" vertex="1">
          <mxGeometry x="370" y="295" width="100" height="20" as="geometry" />
        </mxCell>
        <mxCell id="3ZXVbtOlQP2Ta9_F8lid-21" value="分组的数目" style="text;html=1;align=center;verticalAlign=middle;resizable=0;points=[];autosize=1;" parent="3ZXVbtOlQP2Ta9_F8lid-1" vertex="1">
          <mxGeometry x="380" y="245" width="80" height="20" as="geometry" />
        </mxCell>
        <mxCell id="3ZXVbtOlQP2Ta9_F8lid-41" style="edgeStyle=orthogonalEdgeStyle;rounded=0;orthogonalLoop=1;jettySize=auto;html=1;" parent="3ZXVbtOlQP2Ta9_F8lid-1" source="3ZXVbtOlQP2Ta9_F8lid-22" target="3ZXVbtOlQP2Ta9_F8lid-40" edge="1">
          <mxGeometry relative="1" as="geometry" />
        </mxCell>
        <mxCell id="3ZXVbtOlQP2Ta9_F8lid-22" value="loop_test" style="rounded=0;whiteSpace=wrap;html=1;" parent="3ZXVbtOlQP2Ta9_F8lid-1" vertex="1">
          <mxGeometry x="90" y="580" width="120" height="30" as="geometry" />
        </mxCell>
        <mxCell id="3ZXVbtOlQP2Ta9_F8lid-31" style="edgeStyle=orthogonalEdgeStyle;rounded=0;orthogonalLoop=1;jettySize=auto;html=1;entryX=0.5;entryY=0;entryDx=0;entryDy=0;" parent="3ZXVbtOlQP2Ta9_F8lid-1" source="3ZXVbtOlQP2Ta9_F8lid-24" target="3ZXVbtOlQP2Ta9_F8lid-30" edge="1">
          <mxGeometry relative="1" as="geometry" />
        </mxCell>
        <mxCell id="3ZXVbtOlQP2Ta9_F8lid-24" value="target" style="rounded=0;whiteSpace=wrap;html=1;" parent="3ZXVbtOlQP2Ta9_F8lid-1" vertex="1">
          <mxGeometry x="375" y="380" width="120" height="30" as="geometry" />
        </mxCell>
        <mxCell id="3ZXVbtOlQP2Ta9_F8lid-25" value="candidate.clear()" style="rounded=0;whiteSpace=wrap;html=1;" parent="3ZXVbtOlQP2Ta9_F8lid-1" vertex="1">
          <mxGeometry x="300" y="470" width="120" height="30" as="geometry" />
        </mxCell>
        <mxCell id="3ZXVbtOlQP2Ta9_F8lid-26" value="reporter.clear()" style="rounded=0;whiteSpace=wrap;html=1;" parent="3ZXVbtOlQP2Ta9_F8lid-1" vertex="1">
          <mxGeometry x="450" y="470" width="120" height="30" as="geometry" />
        </mxCell>
        <mxCell id="3ZXVbtOlQP2Ta9_F8lid-36" style="edgeStyle=orthogonalEdgeStyle;rounded=0;orthogonalLoop=1;jettySize=auto;html=1;entryX=0.5;entryY=0;entryDx=0;entryDy=0;" parent="3ZXVbtOlQP2Ta9_F8lid-1" source="3ZXVbtOlQP2Ta9_F8lid-32" target="3ZXVbtOlQP2Ta9_F8lid-34" edge="1">
          <mxGeometry relative="1" as="geometry" />
        </mxCell>
        <mxCell id="3ZXVbtOlQP2Ta9_F8lid-32" value="set_hit_check_func()" style="rounded=0;whiteSpace=wrap;html=1;" parent="3ZXVbtOlQP2Ta9_F8lid-1" vertex="1">
          <mxGeometry x="375" y="560" width="120" height="30" as="geometry" />
        </mxCell>
        <mxCell id="3ZXVbtOlQP2Ta9_F8lid-37" style="edgeStyle=orthogonalEdgeStyle;rounded=0;orthogonalLoop=1;jettySize=auto;html=1;entryX=0.5;entryY=0;entryDx=0;entryDy=0;" parent="3ZXVbtOlQP2Ta9_F8lid-1" source="3ZXVbtOlQP2Ta9_F8lid-34" target="3ZXVbtOlQP2Ta9_F8lid-35" edge="1">
          <mxGeometry relative="1" as="geometry" />
        </mxCell>
        <mxCell id="3ZXVbtOlQP2Ta9_F8lid-34" value="obtain_targeted_evict_set()" style="rounded=0;whiteSpace=wrap;html=1;" parent="3ZXVbtOlQP2Ta9_F8lid-1" vertex="1">
          <mxGeometry x="352.5" y="640" width="165" height="30" as="geometry" />
        </mxCell>
        <mxCell id="3ZXVbtOlQP2Ta9_F8lid-35" value="targeted_trim_divide_random()" style="rounded=0;whiteSpace=wrap;html=1;" parent="3ZXVbtOlQP2Ta9_F8lid-1" vertex="1">
          <mxGeometry x="346.25" y="710" width="177.5" height="30" as="geometry" />
        </mxCell>
        <mxCell id="3ZXVbtOlQP2Ta9_F8lid-39" value="" style="curved=1;endArrow=classic;html=1;exitX=0.75;exitY=1;exitDx=0;exitDy=0;entryX=0.793;entryY=0.018;entryDx=0;entryDy=0;entryPerimeter=0;" parent="3ZXVbtOlQP2Ta9_F8lid-1" source="3ZXVbtOlQP2Ta9_F8lid-22" target="3ZXVbtOlQP2Ta9_F8lid-22" edge="1">
          <mxGeometry width="50" height="50" relative="1" as="geometry">
            <mxPoint x="240" y="630" as="sourcePoint" />
            <mxPoint x="290" y="580" as="targetPoint" />
            <Array as="points">
              <mxPoint x="230" y="620" />
              <mxPoint x="240" y="620" />
              <mxPoint x="250" y="610" />
              <mxPoint x="260" y="600" />
              <mxPoint x="260" y="580" />
              <mxPoint x="240" y="560" />
            </Array>
          </mxGeometry>
        </mxCell>
        <mxCell id="3ZXVbtOlQP2Ta9_F8lid-40" value="output_statistic" style="rounded=0;whiteSpace=wrap;html=1;" parent="3ZXVbtOlQP2Ta9_F8lid-1" vertex="1">
          <mxGeometry x="90" y="710" width="120" height="30" as="geometry" />
        </mxCell>
        <mxCell id="3ZXVbtOlQP2Ta9_F8lid-42" value="创建 candidate&lt;br&gt;/create.hpp" style="text;html=1;align=center;verticalAlign=middle;resizable=0;points=[];autosize=1;" parent="3ZXVbtOlQP2Ta9_F8lid-1" vertex="1">
          <mxGeometry x="570" y="640" width="90" height="30" as="geometry" />
        </mxCell>
        <mxCell id="MoqT_helc6JrqklYfZH2-0" value="搜寻冲突&lt;br&gt;/search.hpp" style="text;html=1;align=center;verticalAlign=middle;resizable=0;points=[];autosize=1;" parent="3ZXVbtOlQP2Ta9_F8lid-1" vertex="1">
          <mxGeometry x="570" y="710" width="80" height="30" as="geometry" />
        </mxCell>
        <mxCell id="MoqT_helc6JrqklYfZH2-1" value="" style="endArrow=none;dashed=1;html=1;exitX=1;exitY=0.5;exitDx=0;exitDy=0;entryX=0.006;entryY=0.481;entryDx=0;entryDy=0;entryPerimeter=0;" parent="3ZXVbtOlQP2Ta9_F8lid-1" source="3ZXVbtOlQP2Ta9_F8lid-34" target="3ZXVbtOlQP2Ta9_F8lid-42" edge="1">
          <mxGeometry width="50" height="50" relative="1" as="geometry">
            <mxPoint x="470" y="680" as="sourcePoint" />
            <mxPoint x="520" y="630" as="targetPoint" />
          </mxGeometry>
        </mxCell>
        <mxCell id="MoqT_helc6JrqklYfZH2-2" value="" style="endArrow=none;dashed=1;html=1;exitX=1;exitY=0.5;exitDx=0;exitDy=0;" parent="3ZXVbtOlQP2Ta9_F8lid-1" source="3ZXVbtOlQP2Ta9_F8lid-35" target="MoqT_helc6JrqklYfZH2-0" edge="1">
          <mxGeometry width="50" height="50" relative="1" as="geometry">
            <mxPoint x="470" y="680" as="sourcePoint" />
            <mxPoint x="520" y="630" as="targetPoint" />
          </mxGeometry>
        </mxCell>
      </root>
    </mxGraphModel>
  </diagram>
  <diagram id="3g3_BuGy2J4wZVet_vXr" name="reporter">
    <mxGraphModel dx="677" dy="384" grid="1" gridSize="10" guides="1" tooltips="1" connect="1" arrows="1" fold="1" page="1" pageScale="1" pageWidth="850" pageHeight="1100" math="0" shadow="0">
      <root>
        <mxCell id="8c-TSOG5QKhptkPUEa86-0" />
        <mxCell id="8c-TSOG5QKhptkPUEa86-1" parent="8c-TSOG5QKhptkPUEa86-0" />
        <mxCell id="8c-TSOG5QKhptkPUEa86-5" value="" style="group" vertex="1" connectable="0" parent="8c-TSOG5QKhptkPUEa86-1">
          <mxGeometry x="60" y="190" width="250" height="190" as="geometry" />
        </mxCell>
        <mxCell id="8c-TSOG5QKhptkPUEa86-2" value="&lt;br&gt;&lt;br&gt;&lt;br&gt;&lt;br&gt;&lt;br&gt;&lt;br&gt;&lt;br&gt;&lt;br&gt;&lt;br&gt;&lt;br&gt;&lt;br&gt;&lt;br&gt;&lt;br&gt;&lt;br&gt;&lt;br&gt;&lt;br&gt;Reporter" style="rounded=0;whiteSpace=wrap;html=1;" vertex="1" parent="8c-TSOG5QKhptkPUEa86-5">
          <mxGeometry width="120" height="190" as="geometry" />
        </mxCell>
        <mxCell id="8c-TSOG5QKhptkPUEa86-4" value="register_cache_access_tracer()" style="rounded=0;whiteSpace=wrap;html=1;" vertex="1" parent="8c-TSOG5QKhptkPUEa86-5">
          <mxGeometry x="40" y="7.3076923076923075" width="210" height="29.23076923076923" as="geometry" />
        </mxCell>
        <mxCell id="Ll3vcFi-DX8l4IDeXBfD-1" style="edgeStyle=orthogonalEdgeStyle;rounded=0;orthogonalLoop=1;jettySize=auto;html=1;exitX=0.5;exitY=1;exitDx=0;exitDy=0;" edge="1" parent="8c-TSOG5QKhptkPUEa86-5" source="8c-TSOG5QKhptkPUEa86-2" target="8c-TSOG5QKhptkPUEa86-2">
          <mxGeometry relative="1" as="geometry" />
        </mxCell>
        <mxCell id="Ll3vcFi-DX8l4IDeXBfD-2" value="check_cache_access()" style="rounded=0;whiteSpace=wrap;html=1;" vertex="1" parent="8c-TSOG5QKhptkPUEa86-5">
          <mxGeometry x="40" y="80.3876923076923" width="210" height="29.23076923076923" as="geometry" />
        </mxCell>
        <mxCell id="Ll3vcFi-DX8l4IDeXBfD-8" value="check_cache_access_generic()" style="rounded=0;whiteSpace=wrap;html=1;" vertex="1" parent="8c-TSOG5QKhptkPUEa86-1">
          <mxGeometry x="340" y="350.7676923076923" width="210" height="29.23076923076923" as="geometry" />
        </mxCell>
        <mxCell id="Ll3vcFi-DX8l4IDeXBfD-11" value="" style="endArrow=none;dashed=1;html=1;exitX=1;exitY=0.5;exitDx=0;exitDy=0;entryX=0;entryY=0.5;entryDx=0;entryDy=0;" edge="1" parent="8c-TSOG5QKhptkPUEa86-1" source="Ll3vcFi-DX8l4IDeXBfD-2" target="Ll3vcFi-DX8l4IDeXBfD-8">
          <mxGeometry width="50" height="50" relative="1" as="geometry">
            <mxPoint x="400" y="330" as="sourcePoint" />
            <mxPoint x="450" y="280" as="targetPoint" />
          </mxGeometry>
        </mxCell>
        <mxCell id="Ll3vcFi-DX8l4IDeXBfD-40" value="" style="group" vertex="1" connectable="0" parent="8c-TSOG5QKhptkPUEa86-1">
          <mxGeometry x="10" y="665" width="195" height="85" as="geometry" />
        </mxCell>
        <mxCell id="Ll3vcFi-DX8l4IDeXBfD-41" value="db_depth" style="text;html=1;align=center;verticalAlign=middle;resizable=0;points=[];autosize=1;" vertex="1" parent="Ll3vcFi-DX8l4IDeXBfD-40">
          <mxGeometry y="10" width="70" height="20" as="geometry" />
        </mxCell>
        <mxCell id="Ll3vcFi-DX8l4IDeXBfD-42" value="" style="group" vertex="1" connectable="0" parent="Ll3vcFi-DX8l4IDeXBfD-40">
          <mxGeometry x="5" width="190" height="85" as="geometry" />
        </mxCell>
        <mxCell id="Ll3vcFi-DX8l4IDeXBfD-43" value="" style="group" vertex="1" connectable="0" parent="Ll3vcFi-DX8l4IDeXBfD-42">
          <mxGeometry x="95" width="95" height="85" as="geometry" />
        </mxCell>
        <mxCell id="Ll3vcFi-DX8l4IDeXBfD-44" value="&lt;br&gt;&lt;br&gt;&lt;br&gt;&lt;br&gt;&lt;br&gt;&lt;br&gt;&lt;br&gt;&lt;br&gt;&lt;br&gt;&lt;br&gt;&lt;br&gt;&lt;br&gt;&lt;br&gt;reporter_t" style="rounded=0;whiteSpace=wrap;html=1;" vertex="1" parent="Ll3vcFi-DX8l4IDeXBfD-43">
          <mxGeometry x="-15" y="-65" width="110" height="150" as="geometry" />
        </mxCell>
        <mxCell id="Ll3vcFi-DX8l4IDeXBfD-45" value="" style="rounded=0;whiteSpace=wrap;html=1;" vertex="1" parent="Ll3vcFi-DX8l4IDeXBfD-43">
          <mxGeometry width="20" height="20" as="geometry" />
        </mxCell>
        <mxCell id="Ll3vcFi-DX8l4IDeXBfD-46" value="" style="rounded=0;whiteSpace=wrap;html=1;" vertex="1" parent="Ll3vcFi-DX8l4IDeXBfD-43">
          <mxGeometry x="20" width="20" height="20" as="geometry" />
        </mxCell>
        <mxCell id="Ll3vcFi-DX8l4IDeXBfD-47" value="" style="rounded=0;whiteSpace=wrap;html=1;" vertex="1" parent="Ll3vcFi-DX8l4IDeXBfD-43">
          <mxGeometry x="40" width="20" height="20" as="geometry" />
        </mxCell>
        <mxCell id="Ll3vcFi-DX8l4IDeXBfD-48" value="" style="rounded=0;whiteSpace=wrap;html=1;" vertex="1" parent="Ll3vcFi-DX8l4IDeXBfD-43">
          <mxGeometry x="60" width="20" height="20" as="geometry" />
        </mxCell>
        <mxCell id="Ll3vcFi-DX8l4IDeXBfD-49" value="dbs" style="text;html=1;strokeColor=none;fillColor=none;align=center;verticalAlign=middle;whiteSpace=wrap;rounded=0;" vertex="1" parent="Ll3vcFi-DX8l4IDeXBfD-43">
          <mxGeometry x="20" y="-40" width="40" height="20" as="geometry" />
        </mxCell>
        <mxCell id="Ll3vcFi-DX8l4IDeXBfD-50" value="db_type" style="text;html=1;align=center;verticalAlign=middle;resizable=0;points=[];autosize=1;" vertex="1" parent="Ll3vcFi-DX8l4IDeXBfD-42">
          <mxGeometry y="50" width="60" height="20" as="geometry" />
        </mxCell>
        <mxCell id="Ll3vcFi-DX8l4IDeXBfD-51" value="" style="group" vertex="1" connectable="0" parent="Ll3vcFi-DX8l4IDeXBfD-42">
          <mxGeometry x="95" y="50" width="80" height="20" as="geometry" />
        </mxCell>
        <mxCell id="Ll3vcFi-DX8l4IDeXBfD-52" value="" style="rounded=0;whiteSpace=wrap;html=1;" vertex="1" parent="Ll3vcFi-DX8l4IDeXBfD-51">
          <mxGeometry width="20" height="20" as="geometry" />
        </mxCell>
        <mxCell id="Ll3vcFi-DX8l4IDeXBfD-53" value="" style="rounded=0;whiteSpace=wrap;html=1;" vertex="1" parent="Ll3vcFi-DX8l4IDeXBfD-51">
          <mxGeometry x="20" width="20" height="20" as="geometry" />
        </mxCell>
        <mxCell id="Ll3vcFi-DX8l4IDeXBfD-54" value="" style="rounded=0;whiteSpace=wrap;html=1;" vertex="1" parent="Ll3vcFi-DX8l4IDeXBfD-51">
          <mxGeometry x="40" width="20" height="20" as="geometry" />
        </mxCell>
        <mxCell id="Ll3vcFi-DX8l4IDeXBfD-55" value="" style="rounded=0;whiteSpace=wrap;html=1;" vertex="1" parent="Ll3vcFi-DX8l4IDeXBfD-51">
          <mxGeometry x="60" width="20" height="20" as="geometry" />
        </mxCell>
        <mxCell id="Ll3vcFi-DX8l4IDeXBfD-56" value="" style="endArrow=classic;html=1;exitX=1;exitY=0.5;exitDx=0;exitDy=0;" edge="1" parent="8c-TSOG5QKhptkPUEa86-1" source="Ll3vcFi-DX8l4IDeXBfD-49">
          <mxGeometry width="50" height="50" relative="1" as="geometry">
            <mxPoint x="330" y="665" as="sourcePoint" />
            <mxPoint x="250" y="635" as="targetPoint" />
          </mxGeometry>
        </mxCell>
        <mxCell id="Ll3vcFi-DX8l4IDeXBfD-57" value="" style="rounded=0;whiteSpace=wrap;html=1;" vertex="1" parent="8c-TSOG5QKhptkPUEa86-1">
          <mxGeometry x="250" y="600" width="120" height="230" as="geometry" />
        </mxCell>
        <mxCell id="Ll3vcFi-DX8l4IDeXBfD-58" value="acc_dbs" style="rounded=0;whiteSpace=wrap;html=1;" vertex="1" parent="8c-TSOG5QKhptkPUEa86-1">
          <mxGeometry x="270" y="620" width="80" height="30" as="geometry" />
        </mxCell>
        <mxCell id="Ll3vcFi-DX8l4IDeXBfD-59" value="addr_dbs" style="rounded=0;whiteSpace=wrap;html=1;" vertex="1" parent="8c-TSOG5QKhptkPUEa86-1">
          <mxGeometry x="270" y="660" width="80" height="30" as="geometry" />
        </mxCell>
        <mxCell id="Ll3vcFi-DX8l4IDeXBfD-60" value="state_dbs" style="rounded=0;whiteSpace=wrap;html=1;" vertex="1" parent="8c-TSOG5QKhptkPUEa86-1">
          <mxGeometry x="270" y="700" width="80" height="30" as="geometry" />
        </mxCell>
        <mxCell id="Ll3vcFi-DX8l4IDeXBfD-61" value="addr_traces" style="rounded=0;whiteSpace=wrap;html=1;" vertex="1" parent="8c-TSOG5QKhptkPUEa86-1">
          <mxGeometry x="270" y="740" width="80" height="30" as="geometry" />
        </mxCell>
        <mxCell id="Ll3vcFi-DX8l4IDeXBfD-62" value="set_traces" style="rounded=0;whiteSpace=wrap;html=1;" vertex="1" parent="8c-TSOG5QKhptkPUEa86-1">
          <mxGeometry x="270" y="780" width="80" height="30" as="geometry" />
        </mxCell>
        <mxCell id="Ll3vcFi-DX8l4IDeXBfD-63" value="&amp;lt;uint64_t,DBAccType&amp;gt;" style="ellipse;shape=cloud;whiteSpace=wrap;html=1;" vertex="1" parent="8c-TSOG5QKhptkPUEa86-1">
          <mxGeometry x="420" y="535" width="210" height="130" as="geometry" />
        </mxCell>
        <mxCell id="Ll3vcFi-DX8l4IDeXBfD-64" value="" style="endArrow=classic;html=1;exitX=1;exitY=0.5;exitDx=0;exitDy=0;entryX=0.07;entryY=0.4;entryDx=0;entryDy=0;entryPerimeter=0;" edge="1" parent="8c-TSOG5QKhptkPUEa86-1" source="Ll3vcFi-DX8l4IDeXBfD-58" target="Ll3vcFi-DX8l4IDeXBfD-63">
          <mxGeometry width="50" height="50" relative="1" as="geometry">
            <mxPoint x="330" y="770" as="sourcePoint" />
            <mxPoint x="380" y="720" as="targetPoint" />
          </mxGeometry>
        </mxCell>
      </root>
    </mxGraphModel>
  </diagram>
</mxfile>
